<svg width="14" height="14" viewBox="0 0 14 14" fill="none" xmlns="http://www.w3.org/2000/svg">
<path d="M12.3251 13.4441H1.67514C1.42826 13.4441 1.18139 13.3816 0.965762 13.266C0.612637 13.0754 0.356387 12.7598 0.240762 12.3754C0.125137 11.991 0.165762 11.5848 0.356387 11.2348L5.67826 1.34414C5.94076 0.856641 6.44701 0.556641 7.00014 0.556641C7.55326 0.556641 8.05951 0.859766 8.32201 1.34414L13.647 11.2348C13.7658 11.4535 13.8251 11.6973 13.8251 11.9473C13.8251 12.3473 13.6689 12.7254 13.3845 13.0066C13.1033 13.291 12.7283 13.4441 12.3251 13.4441ZM1.67514 12.4441H12.3283C12.4626 12.4441 12.5876 12.391 12.6814 12.2973C12.7751 12.2035 12.8283 12.0785 12.8283 11.9441C12.8283 11.8629 12.8064 11.7785 12.7689 11.7066L7.44076 1.81914C7.31264 1.58164 7.09076 1.55664 7.00014 1.55664C6.90951 1.55664 6.68764 1.58164 6.55951 1.81914L1.23451 11.7098C1.17201 11.8285 1.15639 11.9629 1.19701 12.091C1.23451 12.2191 1.32201 12.3254 1.43764 12.3879C1.50951 12.4254 1.59076 12.4441 1.67514 12.4441Z" fill="white" fill-opacity="0.7"/>
<path d="M6.99993 9.41973C6.7343 9.41973 6.51243 9.21035 6.49993 8.94473L6.3218 5.13223C6.3218 5.1291 6.3218 5.12598 6.3218 5.12285V5.10723C6.31868 4.73223 6.61868 4.42598 6.99368 4.42285C7.00618 4.42285 7.01868 4.42285 7.03118 4.42285C7.40618 4.43848 7.6968 4.75723 7.67805 5.13223L7.49993 8.94473C7.48743 9.21035 7.26555 9.41973 6.99993 9.41973Z" fill="white" fill-opacity="0.7"/>
<path d="M7 11.4131C6.65625 11.4131 6.375 11.1318 6.375 10.7881C6.375 10.4443 6.65625 10.1631 7 10.1631C7.34375 10.1631 7.625 10.4443 7.625 10.7881C7.625 11.1318 7.34375 11.4131 7 11.4131Z" fill="white" fill-opacity="0.7"/>
</svg>
