<svg width="48" height="48" viewBox="0 0 48 48" fill="none" xmlns="http://www.w3.org/2000/svg">
<g clip-path="url(#clip0_147_12024)">
<rect width="48" height="48" rx="24" fill="white"/>
<rect width="3.69231" height="3.69231" fill="#4CBBEA"/>
<rect x="3.69226" width="3.69231" height="3.69231" fill="#4CBBEA"/>
<rect x="7.38464" width="3.69231" height="3.69231" fill="#4CBBEA"/>
<rect x="11.0769" width="3.69231" height="3.69231" fill="#4CBBEA"/>
<rect x="14.7693" width="3.69231" height="3.69231" fill="#4CBBEA"/>
<rect x="18.4615" width="3.69231" height="3.69231" fill="#4CBBEA"/>
<rect x="22.1538" width="3.69231" height="3.69231" fill="#4CBBEA"/>
<rect x="25.8462" width="3.69231" height="3.69231" fill="#4CBBEA"/>
<rect x="29.5385" width="3.69231" height="3.69231" fill="#4CBBEA"/>
<rect x="33.2307" width="3.69231" height="3.69231" fill="#4CBBEA"/>
<rect x="36.9231" width="3.69231" height="3.69231" fill="#4CBBEA"/>
<rect x="40.6154" width="3.69231" height="3.69231" fill="#4CBBEA"/>
<rect x="44.3077" width="3.69231" height="3.69231" fill="#4CBBEA"/>
<rect y="3.69238" width="3.69231" height="3.69231" fill="#4CBBEA"/>
<rect x="3.69226" y="3.69238" width="3.69231" height="3.69231" fill="#4CBBEA"/>
<rect x="7.38464" y="3.69238" width="3.69231" height="3.69231" fill="#4CBBEA"/>
<rect x="11.0769" y="3.69238" width="3.69231" height="3.69231" fill="#4CBBEA"/>
<rect x="14.7693" y="3.69238" width="3.69231" height="3.69231" fill="#4CBBEA"/>
<rect x="18.4615" y="3.69238" width="3.69231" height="3.69231" fill="#4CBBEA"/>
<rect x="22.1538" y="3.69238" width="3.69231" height="3.69231" fill="#4CBBEA"/>
<rect x="25.8462" y="3.69238" width="3.69231" height="3.69231" fill="#4CBBEA"/>
<rect x="29.5385" y="3.69238" width="3.69231" height="3.69231" fill="#4CBBEA"/>
<rect x="33.2307" y="3.69238" width="3.69231" height="3.69231" fill="#4CBBEA"/>
<rect x="36.9231" y="3.69238" width="3.69231" height="3.69231" fill="#4CBBEA"/>
<rect x="40.6154" y="3.69238" width="3.69231" height="3.69231" fill="#4CBBEA"/>
<rect x="44.3077" y="3.69238" width="3.69231" height="3.69231" fill="#4CBBEA"/>
<rect y="7.38477" width="3.69231" height="3.69231" fill="#4CBBEA"/>
<rect x="3.69226" y="7.38477" width="3.69231" height="3.69231" fill="#4CBBEA"/>
<rect x="7.38464" y="7.38477" width="3.69231" height="3.69231" fill="#4CBBEA"/>
<rect x="11.0769" y="7.38477" width="3.69231" height="3.69231" fill="#470E29"/>
<rect x="14.7693" y="7.38477" width="3.69231" height="3.69231" fill="#4CBBEA"/>
<rect x="18.4615" y="7.38477" width="3.69231" height="3.69231" fill="#4CBBEA"/>
<rect x="22.1538" y="7.38477" width="3.69231" height="3.69231" fill="#4CBBEA"/>
<rect x="25.8462" y="7.38477" width="3.69231" height="3.69231" fill="#4CBBEA"/>
<rect x="29.5385" y="7.38477" width="3.69231" height="3.69231" fill="#4CBBEA"/>
<rect x="33.2307" y="7.38477" width="3.69231" height="3.69231" fill="#470E29"/>
<rect x="36.9231" y="7.38477" width="3.69231" height="3.69231" fill="#4CBBEA"/>
<rect x="40.6154" y="7.38477" width="3.69231" height="3.69231" fill="#4CBBEA"/>
<rect x="44.3077" y="7.38477" width="3.69231" height="3.69231" fill="#4CBBEA"/>
<rect y="11.0771" width="3.69231" height="3.69231" fill="#4CBBEA"/>
<rect x="3.69226" y="11.0771" width="3.69231" height="3.69231" fill="#4CBBEA"/>
<rect x="7.38464" y="11.0771" width="3.69231" height="3.69231" fill="#4CBBEA"/>
<rect x="11.0769" y="11.0771" width="3.69231" height="3.69231" fill="#8DFEB8"/>
<rect x="14.7693" y="11.0771" width="3.69231" height="3.69231" fill="#4CBBEA"/>
<rect x="18.4615" y="11.0771" width="3.69231" height="3.69231" fill="#4CBBEA"/>
<rect x="22.1538" y="11.0771" width="3.69231" height="3.69231" fill="#4CBBEA"/>
<rect x="25.8462" y="11.0771" width="3.69231" height="3.69231" fill="#4CBBEA"/>
<rect x="29.5385" y="11.0771" width="3.69231" height="3.69231" fill="#4CBBEA"/>
<rect x="33.2307" y="11.0771" width="3.69231" height="3.69231" fill="#8DFEB8"/>
<rect x="36.9231" y="11.0771" width="3.69231" height="3.69231" fill="#4CBBEA"/>
<rect x="40.6154" y="11.0771" width="3.69231" height="3.69231" fill="#4CBBEA"/>
<rect x="44.3077" y="11.0771" width="3.69231" height="3.69231" fill="#4CBBEA"/>
<rect y="14.769" width="3.69231" height="3.69231" fill="#4CBBEA"/>
<rect x="3.69226" y="14.769" width="3.69231" height="3.69231" fill="#470E29"/>
<rect x="7.38464" y="14.769" width="3.69231" height="3.69231" fill="#4CBBEA"/>
<rect x="11.0769" y="14.769" width="3.69231" height="3.69231" fill="#8DFEB8"/>
<rect x="14.7693" y="14.769" width="3.69231" height="3.69231" fill="#4CBBEA"/>
<rect x="18.4615" y="14.769" width="3.69231" height="3.69231" fill="#4CBBEA"/>
<rect x="22.1538" y="14.769" width="3.69231" height="3.69231" fill="#4CBBEA"/>
<rect x="25.8462" y="14.769" width="3.69231" height="3.69231" fill="#4CBBEA"/>
<rect x="29.5385" y="14.769" width="3.69231" height="3.69231" fill="#4CBBEA"/>
<rect x="33.2307" y="14.769" width="3.69231" height="3.69231" fill="#8DFEB8"/>
<rect x="36.9231" y="14.769" width="3.69231" height="3.69231" fill="#4CBBEA"/>
<rect x="40.6154" y="14.769" width="3.69231" height="3.69231" fill="#470E29"/>
<rect x="44.3077" y="14.769" width="3.69231" height="3.69231" fill="#4CBBEA"/>
<rect y="18.4614" width="3.69231" height="3.69231" fill="#4CBBEA"/>
<rect x="3.69226" y="18.4614" width="3.69231" height="3.69231" fill="#470E29"/>
<rect x="7.38464" y="18.4614" width="3.69231" height="3.69231" fill="#470E29"/>
<rect x="11.0769" y="18.4614" width="3.69231" height="3.69231" fill="#470E29"/>
<rect x="14.7693" y="18.4614" width="3.69231" height="3.69231" fill="#470E29"/>
<rect x="18.4615" y="18.4614" width="3.69231" height="3.69231" fill="#4CBBEA"/>
<rect x="22.1538" y="18.4614" width="3.69231" height="3.69231" fill="#4CBBEA"/>
<rect x="25.8462" y="18.4614" width="3.69231" height="3.69231" fill="#4CBBEA"/>
<rect x="29.5385" y="18.4614" width="3.69231" height="3.69231" fill="#470E29"/>
<rect x="33.2307" y="18.4614" width="3.69231" height="3.69231" fill="#470E29"/>
<rect x="36.9231" y="18.4614" width="3.69231" height="3.69231" fill="#470E29"/>
<rect x="40.6154" y="18.4614" width="3.69231" height="3.69231" fill="#470E29"/>
<rect x="44.3077" y="18.4614" width="3.69231" height="3.69231" fill="#4CBBEA"/>
<rect y="22.1538" width="3.69231" height="3.69231" fill="#4CBBEA"/>
<rect x="3.69226" y="22.1538" width="3.69231" height="3.69231" fill="#4CBBEA"/>
<rect x="7.38464" y="22.1538" width="3.69231" height="3.69231" fill="#4CBBEA"/>
<rect x="11.0769" y="22.1538" width="3.69231" height="3.69231" fill="#470E29"/>
<rect x="14.7693" y="22.1538" width="3.69231" height="3.69231" fill="#8DFEB8"/>
<rect x="18.4615" y="22.1538" width="3.69231" height="3.69231" fill="#470E29"/>
<rect x="22.1538" y="22.1538" width="3.69231" height="3.69231" fill="#470E29"/>
<rect x="25.8462" y="22.1538" width="3.69231" height="3.69231" fill="#470E29"/>
<rect x="29.5385" y="22.1538" width="3.69231" height="3.69231" fill="#8DFEB8"/>
<rect x="33.2307" y="22.1538" width="3.69231" height="3.69231" fill="#470E29"/>
<rect x="36.9231" y="22.1538" width="3.69231" height="3.69231" fill="#4CBBEA"/>
<rect x="40.6154" y="22.1538" width="3.69231" height="3.69231" fill="#4CBBEA"/>
<rect x="44.3077" y="22.1538" width="3.69231" height="3.69231" fill="#4CBBEA"/>
<rect y="25.8462" width="3.69231" height="3.69231" fill="#4CBBEA"/>
<rect x="3.69226" y="25.8462" width="3.69231" height="3.69231" fill="#4CBBEA"/>
<rect x="7.38464" y="25.8462" width="3.69231" height="3.69231" fill="#4CBBEA"/>
<rect x="11.0769" y="25.8462" width="3.69231" height="3.69231" fill="#470E29"/>
<rect x="14.7693" y="25.8462" width="3.69231" height="3.69231" fill="#8DFEB8"/>
<rect x="18.4615" y="25.8462" width="3.69231" height="3.69231" fill="#470E29"/>
<rect x="22.1538" y="25.8462" width="3.69231" height="3.69231" fill="#470E29"/>
<rect x="25.8462" y="25.8462" width="3.69231" height="3.69231" fill="#470E29"/>
<rect x="29.5385" y="25.8462" width="3.69231" height="3.69231" fill="#8DFEB8"/>
<rect x="33.2307" y="25.8462" width="3.69231" height="3.69231" fill="#470E29"/>
<rect x="36.9231" y="25.8462" width="3.69231" height="3.69231" fill="#4CBBEA"/>
<rect x="40.6154" y="25.8462" width="3.69231" height="3.69231" fill="#4CBBEA"/>
<rect x="44.3077" y="25.8462" width="3.69231" height="3.69231" fill="#4CBBEA"/>
<rect y="29.5386" width="3.69231" height="3.69231" fill="#4CBBEA"/>
<rect x="3.69226" y="29.5386" width="3.69231" height="3.69231" fill="#4CBBEA"/>
<rect x="7.38464" y="29.5386" width="3.69231" height="3.69231" fill="#470E29"/>
<rect x="11.0769" y="29.5386" width="3.69231" height="3.69231" fill="#470E29"/>
<rect x="14.7693" y="29.5386" width="3.69231" height="3.69231" fill="#470E29"/>
<rect x="18.4615" y="29.5386" width="3.69231" height="3.69231" fill="#8DFEB8"/>
<rect x="22.1538" y="29.5386" width="3.69231" height="3.69231" fill="#8DFEB8"/>
<rect x="25.8462" y="29.5386" width="3.69231" height="3.69231" fill="#8DFEB8"/>
<rect x="29.5385" y="29.5386" width="3.69231" height="3.69231" fill="#470E29"/>
<rect x="33.2307" y="29.5386" width="3.69231" height="3.69231" fill="#470E29"/>
<rect x="36.9231" y="29.5386" width="3.69231" height="3.69231" fill="#470E29"/>
<rect x="40.6154" y="29.5386" width="3.69231" height="3.69231" fill="#4CBBEA"/>
<rect x="44.3077" y="29.5386" width="3.69231" height="3.69231" fill="#4CBBEA"/>
<rect y="33.231" width="3.69231" height="3.69231" fill="#4CBBEA"/>
<rect x="3.69226" y="33.231" width="3.69231" height="3.69231" fill="#470E29"/>
<rect x="7.38464" y="33.231" width="3.69231" height="3.69231" fill="#8DFEB8"/>
<rect x="11.0769" y="33.231" width="3.69231" height="3.69231" fill="#4CBBEA"/>
<rect x="14.7693" y="33.231" width="3.69231" height="3.69231" fill="#8DFEB8"/>
<rect x="18.4615" y="33.231" width="3.69231" height="3.69231" fill="#470E29"/>
<rect x="22.1538" y="33.231" width="3.69231" height="3.69231" fill="#470E29"/>
<rect x="25.8462" y="33.231" width="3.69231" height="3.69231" fill="#470E29"/>
<rect x="29.5385" y="33.231" width="3.69231" height="3.69231" fill="#8DFEB8"/>
<rect x="33.2307" y="33.231" width="3.69231" height="3.69231" fill="#4CBBEA"/>
<rect x="36.9231" y="33.231" width="3.69231" height="3.69231" fill="#8DFEB8"/>
<rect x="40.6154" y="33.231" width="3.69231" height="3.69231" fill="#470E29"/>
<rect x="44.3077" y="33.231" width="3.69231" height="3.69231" fill="#4CBBEA"/>
<rect y="36.9229" width="3.69231" height="3.69231" fill="#4CBBEA"/>
<rect x="3.69226" y="36.9229" width="3.69231" height="3.69231" fill="#470E29"/>
<rect x="7.38464" y="36.9229" width="3.69231" height="3.69231" fill="#8DFEB8"/>
<rect x="11.0769" y="36.9229" width="3.69231" height="3.69231" fill="#4CBBEA"/>
<rect x="14.7693" y="36.9229" width="3.69231" height="3.69231" fill="#4CBBEA"/>
<rect x="18.4615" y="36.9229" width="3.69231" height="3.69231" fill="#470E29"/>
<rect x="22.1538" y="36.9229" width="3.69231" height="3.69231" fill="#470E29"/>
<rect x="25.8462" y="36.9229" width="3.69231" height="3.69231" fill="#470E29"/>
<rect x="29.5385" y="36.9229" width="3.69231" height="3.69231" fill="#4CBBEA"/>
<rect x="33.2307" y="36.9229" width="3.69231" height="3.69231" fill="#4CBBEA"/>
<rect x="36.9231" y="36.9229" width="3.69231" height="3.69231" fill="#8DFEB8"/>
<rect x="40.6154" y="36.9229" width="3.69231" height="3.69231" fill="#470E29"/>
<rect x="44.3077" y="36.9229" width="3.69231" height="3.69231" fill="#4CBBEA"/>
<rect y="40.6152" width="3.69231" height="3.69231" fill="#4CBBEA"/>
<rect x="3.69226" y="40.6152" width="3.69231" height="3.69231" fill="#4CBBEA"/>
<rect x="7.38464" y="40.6152" width="3.69231" height="3.69231" fill="#4CBBEA"/>
<rect x="11.0769" y="40.6152" width="3.69231" height="3.69231" fill="#4CBBEA"/>
<rect x="14.7693" y="40.6152" width="3.69231" height="3.69231" fill="#4CBBEA"/>
<rect x="18.4615" y="40.6152" width="3.69231" height="3.69231" fill="#4CBBEA"/>
<rect x="22.1538" y="40.6152" width="3.69231" height="3.69231" fill="#4CBBEA"/>
<rect x="25.8462" y="40.6152" width="3.69231" height="3.69231" fill="#4CBBEA"/>
<rect x="29.5385" y="40.6152" width="3.69231" height="3.69231" fill="#4CBBEA"/>
<rect x="33.2307" y="40.6152" width="3.69231" height="3.69231" fill="#4CBBEA"/>
<rect x="36.9231" y="40.6152" width="3.69231" height="3.69231" fill="#4CBBEA"/>
<rect x="40.6154" y="40.6152" width="3.69231" height="3.69231" fill="#4CBBEA"/>
<rect x="44.3077" y="40.6152" width="3.69231" height="3.69231" fill="#4CBBEA"/>
<rect y="44.3076" width="3.69231" height="3.69231" fill="#4CBBEA"/>
<rect x="3.69226" y="44.3076" width="3.69231" height="3.69231" fill="#4CBBEA"/>
<rect x="7.38464" y="44.3076" width="3.69231" height="3.69231" fill="#4CBBEA"/>
<rect x="11.0769" y="44.3076" width="3.69231" height="3.69231" fill="#4CBBEA"/>
<rect x="14.7693" y="44.3076" width="3.69231" height="3.69231" fill="#4CBBEA"/>
<rect x="18.4615" y="44.3076" width="3.69231" height="3.69231" fill="#4CBBEA"/>
<rect x="22.1538" y="44.3076" width="3.69231" height="3.69231" fill="#4CBBEA"/>
<rect x="25.8462" y="44.3076" width="3.69231" height="3.69231" fill="#4CBBEA"/>
<rect x="29.5385" y="44.3076" width="3.69231" height="3.69231" fill="#4CBBEA"/>
<rect x="33.2307" y="44.3076" width="3.69231" height="3.69231" fill="#4CBBEA"/>
<rect x="36.9231" y="44.3076" width="3.69231" height="3.69231" fill="#4CBBEA"/>
<rect x="40.6154" y="44.3076" width="3.69231" height="3.69231" fill="#4CBBEA"/>
<rect x="44.3077" y="44.3076" width="3.69231" height="3.69231" fill="#4CBBEA"/>
</g>
<rect x="0.5" y="0.5" width="47" height="47" rx="23.5" stroke="#2C2C2C"/>
<defs>
<clipPath id="clip0_147_12024">
<rect width="48" height="48" rx="24" fill="white"/>
</clipPath>
</defs>
</svg>
