        <svg xmlns="http://www.w3.org/2000/svg" width="20" height="20" viewBox="0 0 20 20" fill="none">
            <path fill-rule="evenodd" clip-rule="evenodd" d="M14.2235 4.26758C14.3894 4.26749 14.5485 4.33334 14.6658 4.45064L15.5494 5.33423C15.6667 5.45153 15.7325 5.61064 15.7324 5.77653C15.7323 5.94241 15.6663 6.10145 15.5489 6.21861L4.69888 17.044C4.65282 17.09 4.59987 17.1284 4.54193 17.1581L2.78451 18.0565C2.54316 18.1799 2.24978 18.1336 2.0581 17.942C1.86641 17.7503 1.82013 17.4569 1.9435 17.2156L2.84193 15.4577C2.87155 15.3998 2.91005 15.3468 2.95602 15.3007L13.7814 4.45113C13.8986 4.3337 14.0576 4.26767 14.2235 4.26758Z" fill="white" />
            <path fill-rule="evenodd" clip-rule="evenodd" d="M15.9916 2.24132C16.226 2.00707 16.5438 1.87549 16.8752 1.87549C17.2066 1.87549 17.5244 2.00707 17.7588 2.24132L17.317 2.68337L17.7591 2.2416C17.9933 2.476 18.1249 2.79382 18.1249 3.1252C18.1249 3.45658 17.9933 3.7744 17.7591 4.00879L16.8754 4.89282C16.7582 5.01009 16.5992 5.07598 16.4334 5.07598C16.2676 5.07598 16.1086 5.01009 15.9914 4.89282L15.1078 4.00884C14.8638 3.76475 14.8638 3.36909 15.1079 3.12505L15.9915 2.24146L16.4334 2.6834L15.9916 2.24132Z" fill="white" />
        </svg>