<svg width="20" height="20" viewBox="0 0 20 20" fill="none" xmlns="http://www.w3.org/2000/svg">
<path fill-rule="evenodd" clip-rule="evenodd" d="M10 9.375C9.65482 9.375 9.375 9.65482 9.375 10C9.375 10.3452 9.65482 10.625 10 10.625C10.3452 10.625 10.625 10.3452 10.625 10C10.625 9.65482 10.3452 9.375 10 9.375ZM8.125 10C8.125 8.96447 8.96447 8.125 10 8.125C11.0355 8.125 11.875 8.96447 11.875 10C11.875 11.0355 11.0355 11.875 10 11.875C8.96447 11.875 8.125 11.0355 8.125 10Z" fill="white" fill-opacity="0.7"/>
<path fill-rule="evenodd" clip-rule="evenodd" d="M16.25 9.375C15.9048 9.375 15.625 9.65482 15.625 10C15.625 10.3452 15.9048 10.625 16.25 10.625C16.5952 10.625 16.875 10.3452 16.875 10C16.875 9.65482 16.5952 9.375 16.25 9.375ZM14.375 10C14.375 8.96447 15.2145 8.125 16.25 8.125C17.2855 8.125 18.125 8.96447 18.125 10C18.125 11.0355 17.2855 11.875 16.25 11.875C15.2145 11.875 14.375 11.0355 14.375 10Z" fill="white" fill-opacity="0.7"/>
<path fill-rule="evenodd" clip-rule="evenodd" d="M3.75 9.375C3.40482 9.375 3.125 9.65482 3.125 10C3.125 10.3452 3.40482 10.625 3.75 10.625C4.09518 10.625 4.375 10.3452 4.375 10C4.375 9.65482 4.09518 9.375 3.75 9.375ZM1.875 10C1.875 8.96447 2.71447 8.125 3.75 8.125C4.78553 8.125 5.625 8.96447 5.625 10C5.625 11.0355 4.78553 11.875 3.75 11.875C2.71447 11.875 1.875 11.0355 1.875 10Z" fill="white" fill-opacity="0.7"/>
</svg>
