<svg width="17" height="16" viewBox="0 0 17 16" fill="none" xmlns="http://www.w3.org/2000/svg">
<path fill-rule="evenodd" clip-rule="evenodd" d="M8.09473 16C12.513 16 16.0947 12.4183 16.0947 8C16.0947 3.58172 12.513 0 8.09473 0C3.67645 0 0.0947266 3.58172 0.0947266 8C0.0947266 12.4183 3.67645 16 8.09473 16ZM12.4662 12.3344H9.46274L7.27478 8.8442C6.76262 9.42083 6.24687 11.2721 6.06484 12.3344H3.8198C4.57826 11.09 6.81197 8.71066 7.1541 8.6621L3.69844 3.71517H6.67161L8.59031 6.99289C9.45989 5.41612 9.59172 4.47918 9.66226 3.97783C9.67726 3.87124 9.68949 3.78434 9.70545 3.71517H12.1932C11.7685 4.3525 10.4942 5.83962 8.73199 7.20534L12.4662 12.3344Z" fill="white" fill-opacity="0.7"/>
</svg>
