<svg width="20" height="20" viewBox="0 0 20 20" fill="none" xmlns="http://www.w3.org/2000/svg">
<path fill-rule="evenodd" clip-rule="evenodd" d="M1.875 9.6875C1.875 5.37318 5.37318 1.875 9.6875 1.875C14.0018 1.875 17.5 5.37318 17.5 9.6875C17.5 14.0018 14.0018 17.5 9.6875 17.5C5.37318 17.5 1.875 14.0018 1.875 9.6875ZM9.6875 3.125C6.06354 3.125 3.125 6.06354 3.125 9.6875C3.125 13.3115 6.06354 16.25 9.6875 16.25C13.3115 16.25 16.25 13.3115 16.25 9.6875C16.25 6.06354 13.3115 3.125 9.6875 3.125Z" fill="white" fill-opacity="0.7"/>
<path fill-rule="evenodd" clip-rule="evenodd" d="M7.96875 8.59375C7.96875 8.24857 8.24857 7.96875 8.59375 7.96875H9.84375C10.1889 7.96875 10.4687 8.24857 10.4687 8.59375V13.125C10.4687 13.4702 10.1889 13.75 9.84375 13.75C9.49857 13.75 9.21875 13.4702 9.21875 13.125V9.21875H8.59375C8.24857 9.21875 7.96875 8.93893 7.96875 8.59375Z" fill="white" fill-opacity="0.7"/>
<path fill-rule="evenodd" clip-rule="evenodd" d="M7.5 13.2812C7.5 12.9361 7.77982 12.6562 8.125 12.6562H11.5625C11.9077 12.6562 12.1875 12.9361 12.1875 13.2812C12.1875 13.6264 11.9077 13.9062 11.5625 13.9062H8.125C7.77982 13.9062 7.5 13.6264 7.5 13.2812Z" fill="white" fill-opacity="0.7"/>
<path d="M9.6875 5.07812C9.48663 5.07812 9.29027 5.13769 9.12325 5.24929C8.95623 5.36089 8.82606 5.51951 8.74918 5.70509C8.67231 5.89067 8.6522 6.09488 8.69139 6.29189C8.73058 6.4889 8.82731 6.66987 8.96934 6.81191C9.11138 6.95394 9.29235 7.05067 9.48936 7.08986C9.68637 7.12905 9.89058 7.10894 10.0762 7.03207C10.2617 6.9552 10.4204 6.82502 10.532 6.658C10.6436 6.49098 10.7031 6.29462 10.7031 6.09375C10.7031 5.82439 10.5961 5.56606 10.4057 5.37559C10.2152 5.18513 9.95686 5.07812 9.6875 5.07812Z" fill="white" fill-opacity="0.7"/>
</svg>
