                <svg xmlns="http://www.w3.org/2000/svg" width="20" height="20" viewBox="0 0 18 18" fill="none">
                    <path d="M9 17.7461C8.56641 17.7461 8.13281 17.6328 7.74219 17.4102L1.80469 13.9531C1.23047 13.6211 0.875 13 0.875 12.3359V5.66406C0.875 5 1.23438 4.37891 1.80469 4.04688L7.74219 0.589844C8.51562 0.136719 9.48047 0.136719 10.2539 0.589844L16.1914 4.04688C16.7656 4.38281 17.1211 5 17.1211 5.66406V12.3359C17.1211 13 16.7656 13.6211 16.1914 13.9531L10.2539 17.4102C9.87109 17.6367 9.43359 17.7461 9 17.7461ZM9 1.5C8.78125 1.5 8.56641 1.55469 8.37109 1.66797L2.43359 5.125C2.24219 5.23438 2.125 5.44141 2.125 5.66406V12.332C2.125 12.5547 2.24219 12.7617 2.43359 12.8711L8.37109 16.3281C8.75781 16.5547 9.23828 16.5547 9.62891 16.3281L15.5664 12.8711C15.7578 12.7617 15.875 12.5547 15.875 12.332V5.66406C15.875 5.44531 15.7539 5.23828 15.5664 5.125L9.62891 1.66797C9.43359 1.55859 9.21484 1.5 9 1.5Z" fill="white" />
                    <path d="M8.99994 9.93745C8.89057 9.93745 8.78119 9.9101 8.68354 9.85151L1.37885 5.55463C1.08198 5.37885 0.980414 4.99604 1.1562 4.69916C1.33198 4.40229 1.71479 4.30073 2.01166 4.47651L8.99994 8.58588L15.9882 4.47651C16.2851 4.30073 16.6679 4.40229 16.8437 4.69916C17.0195 4.99604 16.9179 5.37885 16.621 5.55463L9.31635 9.85151C9.21869 9.9101 9.10932 9.93745 8.99994 9.93745Z" fill="white" />
                    <path d="M9 17.75C8.65625 17.75 8.375 17.4688 8.375 17.125V9.3125C8.375 8.96875 8.65625 8.6875 9 8.6875C9.34375 8.6875 9.625 8.96875 9.625 9.3125V17.125C9.625 17.4688 9.34375 17.75 9 17.75Z" fill="white" />
                </svg>