<svg width="122" height="24" viewBox="0 0 122 24" fill="none" xmlns="http://www.w3.org/2000/svg">
<rect x="18" width="6" height="6" fill="#4CABFF"/>
<rect x="18" y="6" width="6" height="6" fill="url(#paint0_linear_508_5507)"/>
<rect x="6" y="12" width="6" height="6" fill="url(#paint1_linear_508_5507)"/>
<rect x="12" width="6" height="6" fill="url(#paint2_linear_508_5507)"/>
<path d="M6 24L6 18L12 18L6 24Z" fill="#214869"/>
<path d="M18 18L18 12L24 12L18 18Z" fill="#214869"/>
<path d="M0 12H6V18L0 12Z" fill="#214869"/>
<path d="M30 6L24 6L24 2.86118e-07L30 6Z" fill="white"/>
<path d="M6 0H12V6L6 0Z" fill="#214869"/>
<path d="M42.5349 14.9372V18.6422H40V5.39656H42.5349V11.5778L47.1596 5.39656H50.1976L45.9212 10.714L50.5459 18.6422H47.6046L44.2957 12.7488L42.5349 14.9372Z" fill="white"/>
<path d="M54.3453 10.8676H59.4151V13.056H54.3453V16.4538H60.2858V18.6422H51.8104V5.39656H60.2858V7.58496H54.3453V10.8676Z" fill="white"/>
<path d="M64.644 10.8676H69.7138V13.056H64.644V16.4538H70.5845V18.6422H62.1091V5.39656H70.5845V7.58496H64.644V10.8676Z" fill="white"/>
<path d="M71.8557 10.4836C71.8557 6.97067 73.4812 5.20459 76.7513 5.20459C78.2026 5.20459 79.3636 5.58852 80.2344 6.35638C81.1051 7.12425 81.5308 8.19925 81.5308 9.6006V9.73498H78.996V9.6198C78.996 8.94792 78.8025 8.41041 78.4155 8.00729C78.0091 7.60416 77.448 7.41219 76.732 7.41219C75.9193 7.41219 75.3388 7.66175 74.9711 8.16086C74.6035 8.65997 74.41 9.48542 74.41 10.618V13.4783C74.41 14.5533 74.6035 15.3404 74.9905 15.8203C75.3581 16.3002 75.958 16.5498 76.7707 16.5498C77.4867 16.5498 78.0478 16.3578 78.4348 15.9739C78.8025 15.5899 78.996 15.0716 78.996 14.3997V14.2462H81.4921V14.3805C81.4921 15.8011 81.0664 16.8953 80.215 17.644C79.3636 18.4118 78.2026 18.7958 76.7126 18.7958C73.4812 18.7958 71.8557 17.0297 71.8557 13.5167V10.4836Z" fill="white"/>
<path d="M92.9444 18.6422H90.4096V13.0368H85.9784V18.6422H83.4435V5.39656H85.9784V10.8484H90.4096V5.39656H92.9444V18.6422Z" fill="white"/>
<path d="M97.6538 16.0698L96.8411 18.6422H94.1708L98.9116 5.39656H100.982L105.742 18.6422H103.053L102.24 16.0698H97.6538ZM99.9371 8.89033L98.3311 13.9774H101.563L99.9371 8.89033Z" fill="white"/>
<path d="M109.621 5.39656V18.6422H107.086V5.39656H109.621Z" fill="white"/>
<path d="M122 18.6422H119.465L114.55 10.3685V18.6422H112.015V5.39656H114.55L119.465 13.6895V5.39656H122V18.6422Z" fill="white"/>
<defs>
<linearGradient id="paint0_linear_508_5507" x1="24" y1="6" x2="18" y2="12" gradientUnits="userSpaceOnUse">
<stop stop-color="#408FD4"/>
<stop offset="1" stop-color="#214A6E"/>
</linearGradient>
<linearGradient id="paint1_linear_508_5507" x1="12" y1="12" x2="6" y2="18" gradientUnits="userSpaceOnUse">
<stop stop-color="#408FD4"/>
<stop offset="1" stop-color="#214A6E"/>
</linearGradient>
<linearGradient id="paint2_linear_508_5507" x1="18" y1="0" x2="12" y2="6" gradientUnits="userSpaceOnUse">
<stop stop-color="#408FD4"/>
<stop offset="1" stop-color="#214A6E"/>
</linearGradient>
</defs>
</svg>
