<svg viewBox="-4.5 0 30 30" id="Layer_1" version="1.1" xml:space="preserve" xmlns="http://www.w3.org/2000/svg" xmlns:xlink="http://www.w3.org/1999/xlink" fill="#000000"><g id="SVGRepo_bgCarrier" stroke-width="0"></g><g id="SVGRepo_tracerCarrier" stroke-linecap="round" stroke-linejoin="round"></g><g id="SVGRepo_iconCarrier"> <style type="text/css"> .st0{fill-rule:evenodd;clip-rule:evenodd;} .st1{fill-rule:evenodd;clip-rule:evenodd;fill:#FFFFFF;} .st2{fill-rule:evenodd;clip-rule:evenodd;fill:#20486b;} .st3{fill-rule:evenodd;clip-rule:evenodd;fill:#4dacff;} .st4{fill-rule:evenodd;clip-rule:evenodd;fill:#CBDBFC;} .st5{fill-rule:evenodd;clip-rule:evenodd;fill:#D9A066;} .st6{fill-rule:evenodd;clip-rule:evenodd;fill:#EEC39A;} .st7{fill-rule:evenodd;clip-rule:evenodd;fill:#639BFF;} .st8{fill-rule:evenodd;clip-rule:evenodd;fill:#663931;} .st9{fill-rule:evenodd;clip-rule:evenodd;fill:#696A6A;} .st10{fill-rule:evenodd;clip-rule:evenodd;fill:#3F3F74;} .st11{fill-rule:evenodd;clip-rule:evenodd;fill:#8F563B;} .st12{fill-rule:evenodd;clip-rule:evenodd;fill:#4B692F;} .st13{fill-rule:evenodd;clip-rule:evenodd;fill:#6ABE30;} .st14{fill-rule:evenodd;clip-rule:evenodd;fill:#99E550;} .st15{fill-rule:evenodd;clip-rule:evenodd;fill:#9BADB7;} </style> <g> <rect class="st0" height="1" width="1" x="13" y="29"></rect> <rect class="st0" height="1" width="1" x="14" y="28"></rect> <rect class="st1" height="1" width="1" x="13" y="28"></rect> <rect class="st0" height="1" width="1" x="12" y="28"></rect> <rect class="st0" height="1" width="1" x="19" y="27"></rect> <rect class="st0" height="1" width="1" x="13" y="27"></rect> <rect class="st0" height="1" width="1" x="7" y="27"></rect> <rect class="st0" height="1" width="1" x="1" y="27"></rect> <rect class="st0" height="1" width="1" x="20" y="26"></rect> <rect class="st1" height="1" width="1" x="19" y="26"></rect> <rect class="st0" height="1" width="1" x="18" y="26"></rect> <rect class="st0" height="1" width="1" x="13" y="26"></rect> <rect class="st0" height="1" width="1" x="8" y="26"></rect> <rect class="st1" height="1" width="1" x="7" y="26"></rect> <rect class="st0" height="1" width="1" x="6" y="26"></rect> <rect class="st0" height="1" width="1" x="2" y="26"></rect> <rect class="st1" height="1" width="1" x="1" y="26"></rect> <rect class="st0" height="1" width="1" y="26"></rect> <rect class="st0" height="1" width="1" x="19" y="25"></rect> <rect class="st0" height="1" width="1" x="17" y="25"></rect> <rect class="st0" height="1" width="1" x="13" y="25"></rect> <rect class="st0" height="1" width="1" x="7" y="25"></rect> <rect class="st0" height="1" width="1" x="3" y="25"></rect> <rect class="st0" height="1" width="1" x="1" y="25"></rect> <rect class="st0" height="1" width="1" x="16" y="24"></rect> <rect class="st0" height="1" width="1" x="13" y="24"></rect> <rect class="st0" height="1" width="1" x="7" y="24"></rect> <rect class="st0" height="1" width="1" x="4" y="24"></rect> <rect class="st0" height="1" width="1" x="16" y="23"></rect> <rect class="st0" height="1" width="1" x="13" y="23"></rect> <rect class="st0" height="1" width="1" x="7" y="23"></rect> <rect class="st0" height="1" width="1" x="4" y="23"></rect> <rect class="st0" height="1" width="1" x="17" y="22"></rect> <rect class="st0" height="1" width="1" x="16" y="22"></rect> <rect class="st0" height="1" width="1" x="15" y="22"></rect> <rect class="st0" height="1" width="1" x="14" y="22"></rect> <rect class="st0" height="1" width="1" x="13" y="22"></rect> <rect class="st0" height="1" width="1" x="12" y="22"></rect> <rect class="st0" height="1" width="1" x="11" y="22"></rect> <rect class="st0" height="1" width="1" x="10" y="22"></rect> <rect class="st0" height="1" width="1" x="9" y="22"></rect> <rect class="st0" height="1" width="1" x="8" y="22"></rect> <rect class="st0" height="1" width="1" x="7" y="22"></rect> <rect class="st0" height="1" width="1" x="6" y="22"></rect> <rect class="st0" height="1" width="1" x="5" y="22"></rect> <rect class="st0" height="1" width="1" x="4" y="22"></rect> <rect class="st0" height="1" width="1" x="3" y="22"></rect> <rect class="st0" height="1" width="1" x="18" y="21"></rect> <rect class="st2" height="1" width="1" x="17" y="21"></rect> <rect class="st0" height="1" width="1" x="16" y="21"></rect> <rect class="st2" height="1" width="1" x="15" y="21"></rect> <rect class="st2" height="1" width="1" x="14" y="21"></rect> <rect class="st2" height="1" width="1" x="13" y="21"></rect> <rect class="st2" height="1" width="1" x="12" y="21"></rect> <rect class="st2" height="1" width="1" x="11" y="21"></rect> <rect class="st2" height="1" width="1" x="10" y="21"></rect> <rect class="st2" height="1" width="1" x="9" y="21"></rect> <rect class="st2" height="1" width="1" x="8" y="21"></rect> <rect class="st2" height="1" width="1" x="7" y="21"></rect> <rect class="st2" height="1" width="1" x="6" y="21"></rect> <rect class="st2" height="1" width="1" x="5" y="21"></rect> <rect class="st0" height="1" width="1" x="4" y="21"></rect> <rect class="st2" height="1" width="1" x="3" y="21"></rect> <rect class="st0" height="1" width="1" x="2" y="21"></rect> <rect class="st0" height="1" width="1" x="18" y="20"></rect> <rect class="st0" height="1" width="1" x="17" y="20"></rect> <rect class="st0" height="1" width="1" x="16" y="20"></rect> <rect class="st1" height="1" width="1" x="15" y="20"></rect> <rect class="st1" height="1" width="1" x="14" y="20"></rect> <rect class="st0" height="1" width="1" x="13" y="20"></rect> <rect class="st0" height="1" width="1" x="12" y="20"></rect> <rect class="st0" height="1" width="1" x="11" y="20"></rect> <rect class="st0" height="1" width="1" x="10" y="20"></rect> <rect class="st0" height="1" width="1" x="9" y="20"></rect> <rect class="st3" height="1" width="1" x="8" y="20"></rect> <rect class="st0" height="1" width="1" x="7" y="20"></rect> <rect class="st2" height="1" width="1" x="6" y="20"></rect> <rect class="st2" height="1" width="1" x="5" y="20"></rect> <rect class="st0" height="1" width="1" x="4" y="20"></rect> <rect class="st0" height="1" width="1" x="3" y="20"></rect> <rect class="st0" height="1" width="1" x="2" y="20"></rect> <rect class="st0" height="1" width="1" x="18" y="19"></rect> <rect class="st2" height="1" width="1" x="17" y="19"></rect> <rect class="st3" height="1" width="1" x="16" y="19"></rect> <rect class="st3" height="1" width="1" x="15" y="19"></rect> <rect class="st1" height="1" width="1" x="14" y="19"></rect> <rect class="st1" height="1" width="1" x="13" y="19"></rect> <rect class="st3" height="1" width="1" x="12" y="19"></rect> <rect class="st3" height="1" width="1" x="11" y="19"></rect> <rect class="st3" height="1" width="1" x="10" y="19"></rect> <rect class="st3" height="1" width="1" x="9" y="19"></rect> <rect class="st3" height="1" width="1" x="8" y="19"></rect> <rect class="st3" height="1" width="1" x="7" y="19"></rect> <rect class="st3" height="1" width="1" x="6" y="19"></rect> <rect class="st3" height="1" width="1" x="5" y="19"></rect> <rect class="st3" height="1" width="1" x="4" y="19"></rect> <rect class="st1" height="1" width="1" x="3" y="19"></rect> <rect class="st0" height="1" width="1" x="2" y="19"></rect> <rect class="st0" height="1" width="1" x="18" y="18"></rect> <rect class="st2" height="1" width="1" x="17" y="18"></rect> <rect class="st3" height="1" width="1" x="16" y="18"></rect> <rect class="st3" height="1" width="1" x="15" y="18"></rect> <rect class="st3" height="1" width="1" x="14" y="18"></rect> <rect class="st1" height="1" width="1" x="13" y="18"></rect> <rect class="st1" height="1" width="1" x="12" y="18"></rect> <rect class="st3" height="1" width="1" x="11" y="18"></rect> <rect class="st3" height="1" width="1" x="10" y="18"></rect> <rect class="st3" height="1" width="1" x="9" y="18"></rect> <rect class="st3" height="1" width="1" x="8" y="18"></rect> <rect class="st3" height="1" width="1" x="7" y="18"></rect> <rect class="st3" height="1" width="1" x="6" y="18"></rect> <rect class="st3" height="1" width="1" x="5" y="18"></rect> <rect class="st3" height="1" width="1" x="4" y="18"></rect> <rect class="st1" height="1" width="1" x="3" y="18"></rect> <rect class="st0" height="1" width="1" x="2" y="18"></rect> <rect class="st0" height="1" width="1" x="18" y="17"></rect> <rect class="st2" height="1" width="1" x="17" y="17"></rect> <rect class="st3" height="1" width="1" x="16" y="17"></rect> <rect class="st3" height="1" width="1" x="15" y="17"></rect> <rect class="st0" height="1" width="1" x="14" y="17"></rect> <rect class="st3" height="1" width="1" x="13" y="17"></rect> <rect class="st1" height="1" width="1" x="12" y="17"></rect> <rect class="st1" height="1" width="1" x="11" y="17"></rect> <rect class="st3" height="1" width="1" x="10" y="17"></rect> <rect class="st0" height="1" width="1" x="9" y="17"></rect> <rect class="st3" height="1" width="1" x="8" y="17"></rect> <rect class="st0" height="1" width="1" x="7" y="17"></rect> <rect class="st3" height="1" width="1" x="6" y="17"></rect> <rect class="st3" height="1" width="1" x="5" y="17"></rect> <rect class="st0" height="1" width="1" x="4" y="17"></rect> <rect class="st1" height="1" width="1" x="3" y="17"></rect> <rect class="st0" height="1" width="1" x="2" y="17"></rect> <rect class="st0" height="1" width="1" x="18" y="16"></rect> <rect class="st2" height="1" width="1" x="17" y="16"></rect> <rect class="st3" height="1" width="1" x="16" y="16"></rect> <rect class="st3" height="1" width="1" x="15" y="16"></rect> <rect class="st0" height="1" width="1" x="14" y="16"></rect> <rect class="st3" height="1" width="1" x="13" y="16"></rect> <rect class="st3" height="1" width="1" x="12" y="16"></rect> <rect class="st1" height="1" width="1" x="11" y="16"></rect> <rect class="st1" height="1" width="1" x="10" y="16"></rect> <rect class="st0" height="1" width="1" x="9" y="16"></rect> <rect class="st3" height="1" width="1" x="8" y="16"></rect> <rect class="st0" height="1" width="1" x="7" y="16"></rect> <rect class="st3" height="1" width="1" x="6" y="16"></rect> <rect class="st3" height="1" width="1" x="5" y="16"></rect> <rect class="st0" height="1" width="1" x="4" y="16"></rect> <rect class="st1" height="1" width="1" x="3" y="16"></rect> <rect class="st0" height="1" width="1" x="2" y="16"></rect> <rect class="st0" height="1" width="1" x="18" y="15"></rect> <rect class="st2" height="1" width="1" x="17" y="15"></rect> <rect class="st1" height="1" width="1" x="16" y="15"></rect> <rect class="st3" height="1" width="1" x="15" y="15"></rect> <rect class="st0" height="1" width="1" x="14" y="15"></rect> <rect class="st3" height="1" width="1" x="13" y="15"></rect> <rect class="st3" height="1" width="1" x="12" y="15"></rect> <rect class="st0" height="1" width="1" x="11" y="15"></rect> <rect class="st0" height="1" width="1" x="10" y="15"></rect> <rect class="st0" height="1" width="1" x="9" y="15"></rect> <rect class="st3" height="1" width="1" x="8" y="15"></rect> <rect class="st0" height="1" width="1" x="7" y="15"></rect> <rect class="st0" height="1" width="1" x="6" y="15"></rect> <rect class="st3" height="1" width="1" x="5" y="15"></rect> <rect class="st0" height="1" width="1" x="4" y="15"></rect> <rect class="st1" height="1" width="1" x="3" y="15"></rect> <rect class="st0" height="1" width="1" x="2" y="15"></rect> <rect class="st0" height="1" width="1" x="18" y="14"></rect> <rect class="st2" height="1" width="1" x="17" y="14"></rect> <rect class="st3" height="1" width="1" x="16" y="14"></rect> <rect class="st1" height="1" width="1" x="15" y="14"></rect> <rect class="st0" height="1" width="1" x="14" y="14"></rect> <rect class="st3" height="1" width="1" x="13" y="14"></rect> <rect class="st3" height="1" width="1" x="12" y="14"></rect> <rect class="st3" height="1" width="1" x="11" y="14"></rect> <rect class="st3" height="1" width="1" x="10" y="14"></rect> <rect class="st0" height="1" width="1" x="9" y="14"></rect> <rect class="st1" height="1" width="1" x="8" y="14"></rect> <rect class="st0" height="1" width="1" x="7" y="14"></rect> <rect class="st3" height="1" width="1" x="6" y="14"></rect> <rect class="st0" height="1" width="1" x="5" y="14"></rect> <rect class="st0" height="1" width="1" x="4" y="14"></rect> <rect class="st1" height="1" width="1" x="3" y="14"></rect> <rect class="st0" height="1" width="1" x="2" y="14"></rect> <rect class="st0" height="1" width="1" x="18" y="13"></rect> <rect class="st2" height="1" width="1" x="17" y="13"></rect> <rect class="st3" height="1" width="1" x="16" y="13"></rect> <rect class="st0" height="1" width="1" x="15" y="13"></rect> <rect class="st0" height="1" width="1" x="14" y="13"></rect> <rect class="st0" height="1" width="1" x="13" y="13"></rect> <rect class="st3" height="1" width="1" x="12" y="13"></rect> <rect class="st0" height="1" width="1" x="11" y="13"></rect> <rect class="st0" height="1" width="1" x="10" y="13"></rect> <rect class="st0" height="1" width="1" x="9" y="13"></rect> <rect class="st1" height="1" width="1" x="8" y="13"></rect> <rect class="st0" height="1" width="1" x="7" y="13"></rect> <rect class="st3" height="1" width="1" x="6" y="13"></rect> <rect class="st3" height="1" width="1" x="5" y="13"></rect> <rect class="st0" height="1" width="1" x="4" y="13"></rect> <rect class="st1" height="1" width="1" x="3" y="13"></rect> <rect class="st0" height="1" width="1" x="2" y="13"></rect> <rect class="st0" height="1" width="1" x="18" y="12"></rect> <rect class="st2" height="1" width="1" x="17" y="12"></rect> <rect class="st3" height="1" width="1" x="16" y="12"></rect> <rect class="st3" height="1" width="1" x="15" y="12"></rect> <rect class="st3" height="1" width="1" x="14" y="12"></rect> <rect class="st1" height="1" width="1" x="13" y="12"></rect> <rect class="st3" height="1" width="1" x="12" y="12"></rect> <rect class="st3" height="1" width="1" x="11" y="12"></rect> <rect class="st3" height="1" width="1" x="10" y="12"></rect> <rect class="st3" height="1" width="1" x="9" y="12"></rect> <rect class="st3" height="1" width="1" x="8" y="12"></rect> <rect class="st1" height="1" width="1" x="7" y="12"></rect> <rect class="st1" height="1" width="1" x="6" y="12"></rect> <rect class="st3" height="1" width="1" x="5" y="12"></rect> <rect class="st3" height="1" width="1" x="4" y="12"></rect> <rect class="st1" height="1" width="1" x="3" y="12"></rect> <rect class="st0" height="1" width="1" x="2" y="12"></rect> <rect class="st0" height="1" width="1" x="18" y="11"></rect> <rect class="st2" height="1" width="1" x="17" y="11"></rect> <rect class="st3" height="1" width="1" x="16" y="11"></rect> <rect class="st3" height="1" width="1" x="15" y="11"></rect> <rect class="st3" height="1" width="1" x="14" y="11"></rect> <rect class="st3" height="1" width="1" x="13" y="11"></rect> <rect class="st1" height="1" width="1" x="12" y="11"></rect> <rect class="st3" height="1" width="1" x="11" y="11"></rect> <rect class="st3" height="1" width="1" x="10" y="11"></rect> <rect class="st3" height="1" width="1" x="9" y="11"></rect> <rect class="st3" height="1" width="1" x="8" y="11"></rect> <rect class="st3" height="1" width="1" x="7" y="11"></rect> <rect class="st1" height="1" width="1" x="6" y="11"></rect> <rect class="st1" height="1" width="1" x="5" y="11"></rect> <rect class="st3" height="1" width="1" x="4" y="11"></rect> <rect class="st1" height="1" width="1" x="3" y="11"></rect> <rect class="st0" height="1" width="1" x="2" y="11"></rect> <rect class="st0" height="1" width="1" x="18" y="10"></rect> <rect class="st2" height="1" width="1" x="17" y="10"></rect> <rect class="st3" height="1" width="1" x="16" y="10"></rect> <rect class="st3" height="1" width="1" x="15" y="10"></rect> <rect class="st0" height="1" width="1" x="14" y="10"></rect> <rect class="st3" height="1" width="1" x="13" y="10"></rect> <rect class="st3" height="1" width="1" x="12" y="10"></rect> <rect class="st0" height="1" width="1" x="11" y="10"></rect> <rect class="st0" height="1" width="1" x="10" y="10"></rect> <rect class="st0" height="1" width="1" x="9" y="10"></rect> <rect class="st0" height="1" width="1" x="8" y="10"></rect> <rect class="st0" height="1" width="1" x="7" y="10"></rect> <rect class="st3" height="1" width="1" x="6" y="10"></rect> <rect class="st1" height="1" width="1" x="5" y="10"></rect> <rect class="st1" height="1" width="1" x="4" y="10"></rect> <rect class="st1" height="1" width="1" x="3" y="10"></rect> <rect class="st0" height="1" width="1" x="2" y="10"></rect> <rect class="st0" height="1" width="1" x="18" y="9"></rect> <rect class="st0" height="1" width="1" x="17" y="9"></rect> <rect class="st0" height="1" width="1" x="16" y="9"></rect> <rect class="st3" height="1" width="1" x="15" y="9"></rect> <rect class="st3" height="1" width="1" x="14" y="9"></rect> <rect class="st3" height="1" width="1" x="13" y="9"></rect> <rect class="st3" height="1" width="1" x="12" y="9"></rect> <rect class="st3" height="1" width="1" x="11" y="9"></rect> <rect class="st1" height="1" width="1" x="10" y="9"></rect> <rect class="st3" height="1" width="1" x="9" y="9"></rect> <rect class="st3" height="1" width="1" x="8" y="9"></rect> <rect class="st3" height="1" width="1" x="7" y="9"></rect> <rect class="st3" height="1" width="1" x="6" y="9"></rect> <rect class="st3" height="1" width="1" x="5" y="9"></rect> <rect class="st0" height="1" width="1" x="4" y="9"></rect> <rect class="st0" height="1" width="1" x="3" y="9"></rect> <rect class="st0" height="1" width="1" x="2" y="9"></rect> <rect class="st0" height="1" width="1" x="18" y="8"></rect> <rect class="st3" height="1" width="1" x="17" y="8"></rect> <rect class="st0" height="1" width="1" x="16" y="8"></rect> <rect class="st3" height="1" width="1" x="15" y="8"></rect> <rect class="st1" height="1" width="1" x="14" y="8"></rect> <rect class="st1" height="1" width="1" x="13" y="8"></rect> <rect class="st1" height="1" width="1" x="12" y="8"></rect> <rect class="st1" height="1" width="1" x="11" y="8"></rect> <rect class="st1" height="1" width="1" x="10" y="8"></rect> <rect class="st1" height="1" width="1" x="9" y="8"></rect> <rect class="st1" height="1" width="1" x="8" y="8"></rect> <rect class="st1" height="1" width="1" x="7" y="8"></rect> <rect class="st1" height="1" width="1" x="6" y="8"></rect> <rect class="st3" height="1" width="1" x="5" y="8"></rect> <rect class="st0" height="1" width="1" x="4" y="8"></rect> <rect class="st3" height="1" width="1" x="3" y="8"></rect> <rect class="st0" height="1" width="1" x="2" y="8"></rect> <rect class="st0" height="1" width="1" x="17" y="7"></rect> <rect class="st0" height="1" width="1" x="16" y="7"></rect> <rect class="st0" height="1" width="1" x="15" y="7"></rect> <rect class="st0" height="1" width="1" x="14" y="7"></rect> <rect class="st0" height="1" width="1" x="13" y="7"></rect> <rect class="st0" height="1" width="1" x="12" y="7"></rect> <rect class="st0" height="1" width="1" x="11" y="7"></rect> <rect class="st0" height="1" width="1" x="10" y="7"></rect> <rect class="st0" height="1" width="1" x="9" y="7"></rect> <rect class="st0" height="1" width="1" x="8" y="7"></rect> <rect class="st0" height="1" width="1" x="7" y="7"></rect> <rect class="st0" height="1" width="1" x="6" y="7"></rect> <rect class="st0" height="1" width="1" x="5" y="7"></rect> <rect class="st0" height="1" width="1" x="4" y="7"></rect> <rect class="st0" height="1" width="1" x="3" y="7"></rect> <rect class="st0" height="1" width="1" x="16" y="6"></rect> <rect class="st0" height="1" width="1" x="13" y="6"></rect> <rect class="st0" height="1" width="1" x="7" y="6"></rect> <rect class="st0" height="1" width="1" x="4" y="6"></rect> <rect class="st0" height="1" width="1" x="16" y="5"></rect> <rect class="st0" height="1" width="1" x="13" y="5"></rect> <rect class="st0" height="1" width="1" x="7" y="5"></rect> <rect class="st0" height="1" width="1" x="4" y="5"></rect> <rect class="st0" height="1" width="1" x="19" y="4"></rect> <rect class="st0" height="1" width="1" x="17" y="4"></rect> <rect class="st0" height="1" width="1" x="13" y="4"></rect> <rect class="st0" height="1" width="1" x="7" y="4"></rect> <rect class="st0" height="1" width="1" x="3" y="4"></rect> <rect class="st0" height="1" width="1" x="1" y="4"></rect> <rect class="st0" height="1" width="1" x="20" y="3"></rect> <rect class="st1" height="1" width="1" x="19" y="3"></rect> <rect class="st0" height="1" width="1" x="18" y="3"></rect> <rect class="st0" height="1" width="1" x="14" y="3"></rect> <rect class="st1" height="1" width="1" x="13" y="3"></rect> <rect class="st0" height="1" width="1" x="12" y="3"></rect> <rect class="st0" height="1" width="1" x="7" y="3"></rect> <rect class="st0" height="1" width="1" x="2" y="3"></rect> <rect class="st1" height="1" width="1" x="1" y="3"></rect> <rect class="st0" height="1" width="1" y="3"></rect> <rect class="st0" height="1" width="1" x="19" y="2"></rect> <rect class="st0" height="1" width="1" x="13" y="2"></rect> <rect class="st0" height="1" width="1" x="7" y="2"></rect> <rect class="st0" height="1" width="1" x="1" y="2"></rect> <rect class="st0" height="1" width="1" x="8" y="1"></rect> <rect class="st1" height="1" width="1" x="7" y="1"></rect> <rect class="st0" height="1" width="1" x="6" y="1"></rect> <rect class="st0" height="1" width="1" x="7"></rect> </g> </g></svg>