<svg width="24" height="24" viewBox="0 0 24 24" fill="none" xmlns="http://www.w3.org/2000/svg">
<path fill-rule="evenodd" clip-rule="evenodd" d="M17.0484 5.19531C17.2467 5.1952 17.4369 5.27392 17.5771 5.41412L18.6332 6.47026C18.7734 6.61046 18.8521 6.80065 18.852 6.99892C18.8519 7.1972 18.773 7.3873 18.6326 7.52734L5.66389 20.4667C5.60883 20.5216 5.54554 20.5676 5.47629 20.603L3.37569 21.6769C3.0872 21.8244 2.73654 21.7691 2.50742 21.54C2.27831 21.3109 2.22299 20.9602 2.37044 20.6717L3.44433 18.5706C3.47973 18.5014 3.52574 18.4381 3.58069 18.383L16.52 5.41471C16.6601 5.27435 16.8502 5.19542 17.0484 5.19531Z" fill="white"/>
<path fill-rule="evenodd" clip-rule="evenodd" d="M19.1613 2.7732C19.4415 2.49322 19.8214 2.33594 20.2175 2.33594C20.6136 2.33594 20.9935 2.49322 21.2736 2.7732L20.7456 3.30158L21.274 2.77355C21.554 3.05372 21.7112 3.4336 21.7112 3.82969C21.7112 4.22577 21.554 4.60565 21.274 4.88582L20.2178 5.94249C20.0777 6.08265 19.8876 6.16141 19.6894 6.16141C19.4912 6.16141 19.3012 6.08265 19.1611 5.94249L18.1049 4.88588C17.8133 4.59412 17.8133 4.12121 18.105 3.82951L19.1612 2.77337L19.6894 3.30162L19.1613 2.7732Z" fill="white"/>
</svg>
