<svg width="24" height="24" viewBox="0 0 24 24" fill="none" xmlns="http://www.w3.org/2000/svg">
<path d="M13.4416 11.4022V6.42184C13.4416 6.15767 13.3367 5.90432 13.1499 5.71752C12.9631 5.53072 12.7098 5.42578 12.4456 5.42578C12.1814 5.42578 11.9281 5.53072 11.7413 5.71752C11.5545 5.90432 11.4495 6.15767 11.4495 6.42184V11.4022H6.46921C6.20504 11.4022 5.95168 11.5071 5.76488 11.6939C5.57809 11.8807 5.47314 12.134 5.47314 12.3982C5.47314 12.6624 5.57809 12.9157 5.76488 13.1025C5.95168 13.2893 6.20504 13.3943 6.46921 13.3943H11.4495V18.3746C11.4495 18.6388 11.5545 18.8921 11.7413 19.0789C11.9281 19.2657 12.1814 19.3707 12.4456 19.3707C12.7098 19.3707 12.9631 19.2657 13.1499 19.0789C13.3367 18.8921 13.4416 18.6388 13.4416 18.3746V13.3943H18.422C18.6861 13.3943 18.9395 13.2893 19.1263 13.1025C19.3131 12.9157 19.418 12.6624 19.418 12.3982C19.418 12.134 19.3131 11.8807 19.1263 11.6939C18.9395 11.5071 18.6861 11.4022 18.422 11.4022H13.4416Z" fill="white"/>
</svg>
