<svg xmlns="http://www.w3.org/2000/svg" width="20" height="20" viewBox="0 0 20 20" fill="none">
  <path d="M8.75009 13.7496C9.4067 13.7496 10.0569 13.6203 10.6635 13.369C11.2701 13.1177 11.8213 12.7494 12.2856 12.2851C12.7499 11.8208 13.1182 11.2697 13.3695 10.663C13.6208 10.0564 13.7501 9.40622 13.7501 8.74961C13.7501 8.093 13.6208 7.44282 13.3695 6.83619C13.1182 6.22956 12.7499 5.67836 12.2856 5.21407C11.8213 4.74978 11.2701 4.38148 10.6635 4.13021C10.0569 3.87893 9.4067 3.74961 8.75009 3.74961C7.42401 3.74961 6.15224 4.27639 5.21456 5.21407C4.27688 6.15175 3.75009 7.42352 3.75009 8.74961C3.75009 10.0757 4.27688 11.3475 5.21456 12.2851C6.15224 13.2228 7.42401 13.7496 8.75009 13.7496ZM14.0168 12.8379L17.0001 15.8213C17.0796 15.8982 17.143 15.9902 17.1866 16.0919C17.2302 16.1936 17.2532 16.303 17.254 16.4136C17.2549 16.5243 17.2338 16.634 17.1918 16.7364C17.1498 16.8387 17.0879 16.9317 17.0096 17.0099C16.9313 17.0881 16.8382 17.1499 16.7357 17.1918C16.6333 17.2336 16.5236 17.2546 16.4129 17.2536C16.3023 17.2525 16.1929 17.2295 16.0913 17.1857C15.9897 17.142 15.8977 17.0784 15.8209 16.9988L12.8376 14.0154C11.498 15.0553 9.81242 15.5456 8.12406 15.3864C6.43569 15.2273 4.87143 14.4307 3.74972 13.1588C2.62801 11.8869 2.03316 10.2354 2.08628 8.54038C2.1394 6.84536 2.83648 5.23429 4.03563 4.03514C5.23478 2.836 6.84585 2.13891 8.54086 2.08579C10.2359 2.03268 11.8874 2.62752 13.1593 3.74923C14.4312 4.87094 15.2278 6.4352 15.3869 8.12357C15.5461 9.81193 15.0558 11.4975 14.0159 12.8371L14.0168 12.8379Z" fill="white"/>
</svg>